<?xml version="1.0" encoding="UTF-8"?>
<!-- Generator: visioncortex VTracer 0.6.4 -->
<svg version="1.1" xmlns="http://www.w3.org/2000/svg" width="318" height="318">
<path d="M0 0 C7.91 6.85 13.89 20.23 15.33 30.53 C16.34 46.08 16.16 60.76 5.51 73.3 C-1.49 80.35 -7.04 81.85 -16.9 81.96 C-29.55 81.72 -41.92 78.83 -54.26 76.24 C-73.71 71.37 -73.71 71.37 -92.49 75.3 C-93.76 79.13 -93.91 81.23 -92.43 84.99 C-83.88 95.19 -68.52 95.79 -56.18 96.88 C-54.49 97.02 -52.8 97.17 -51.11 97.3 C-23.15 99.62 1.61 106.08 20.51 128.3 C36.7 149.77 40.12 175.85 37.21 202.04 C36.41 206.96 35.08 211.58 33.51 216.3 C33.3 216.97 33.09 217.63 32.88 218.31 C24.46 244.71 6.83 263.76 -17.59 276.52 C-40.55 287.93 -65.41 292.75 -90.93 292.68 C-91.66 292.68 -92.4 292.68 -93.15 292.68 C-124.5 292.57 -156.94 285.27 -180.49 263.3 C-181.13 262.76 -181.76 262.21 -182.42 261.64 C-193.88 251.25 -201.03 234.86 -201.86 219.48 C-202.34 198.9 -198.98 178.25 -193.55 158.43 C-193.33 157.62 -193.12 156.82 -192.9 155.99 C-190.89 149.27 -187.47 143.28 -182.49 138.3 C-176.59 137 -172.09 138.12 -167.05 141.3 C-164.22 143.27 -161.47 145.32 -158.7 147.38 C-149.59 154.12 -141.42 158.11 -130.55 161.18 C-119.94 164.19 -112.26 168.78 -104.02 176.08 C-99.28 179.86 -93.27 179.94 -87.49 179.3 C-81.44 177.84 -81.44 177.84 -76.49 174.3 C-75.99 171.85 -75.99 171.85 -76.49 169.3 C-84.3 161.95 -98.54 160.85 -108.68 159.3 C-131.73 155.74 -150.84 144.73 -165.49 126.3 C-180.19 106.04 -186.5 81.06 -182.99 56.23 C-179.75 38.74 -173.05 24.7 -161.49 11.3 C-160.9 10.62 -160.3 9.93 -159.69 9.21 C-124.52 -28.73 -40.74 -27.75 0 0 Z " fill="#FEF2AE" transform="translate(238.48828125,21.6953125)"/>
</svg>